<svg xmlns="http://www.w3.org/2000/svg" xmlns:xlink="http://www.w3.org/1999/xlink" viewBox="0 0 157 142.01"><defs><style>.cls-1{fill:#ac1f27;}.cls-2{fill:url(#linear-gradient);}.cls-3{fill:url(#linear-gradient-2);}.cls-4{fill:url(#linear-gradient-3);}.cls-5{fill:#fff;}.cls-6,.cls-8{fill:#f79d21;}.cls-6{stroke:#f79d21;stroke-width:0.39px;}.cls-7{fill:#204998;}.cls-9{fill:#e92629;}.cls-10{fill:#29aae1;}.cls-11{fill:#faed20;}.cls-12{fill:#231f20;}.cls-12,.cls-13,.cls-14,.cls-15{stroke:#231f20;stroke-miterlimit:3.86;}.cls-12,.cls-14,.cls-15{stroke-width:0.2px;}.cls-13,.cls-15{fill:#fcda00;}.cls-13{stroke-width:0.37px;}.cls-14{fill:none;}</style><linearGradient id="linear-gradient" y1="133.41" x2="28.56" y2="133.41" gradientUnits="userSpaceOnUse"><stop offset="0" stop-color="#e7282b"/><stop offset="0.24" stop-color="#e1272b"/><stop offset="0.55" stop-color="#d22629"/><stop offset="0.89" stop-color="#b82327"/><stop offset="1" stop-color="#ae2226"/></linearGradient><linearGradient id="linear-gradient-2" x1="117.05" y1="138.35" x2="154.59" y2="125.68" gradientUnits="userSpaceOnUse"><stop offset="0" stop-color="#ae2226"/><stop offset="0.33" stop-color="#c62528"/><stop offset="0.75" stop-color="#de272a"/><stop offset="1" stop-color="#e7282b"/></linearGradient><linearGradient id="linear-gradient-3" x1="16.57" y1="124.79" x2="132.86" y2="124.79" gradientUnits="userSpaceOnUse"><stop offset="0" stop-color="#e7282b"/><stop offset="0.23" stop-color="#ef412d"/><stop offset="0.24" stop-color="#ed3e2d"/><stop offset="0.33" stop-color="#e02f2b"/><stop offset="0.42" stop-color="#d82629"/><stop offset="0.56" stop-color="#d62329"/><stop offset="0.83" stop-color="#ef412d"/><stop offset="0.98" stop-color="#e7282b"/></linearGradient></defs><title>Asset 1</title><g id="Layer_2" data-name="Layer 2"><g id="Layer_1-2" data-name="Layer 1"><g id="_Group_" data-name="&lt;Group&gt;"><g id="_Group_2" data-name="&lt;Group&gt;"><g id="_Group_3" data-name="&lt;Group&gt;"><path id="_Path_" data-name="&lt;Path&gt;" class="cls-1" d="M23,139.1a20.68,20.68,0,0,1,5.56,1.34L30,122.08l-12.67,2.45-.82,14.79A27.48,27.48,0,0,1,23,139.1Z"/><path id="_Path_2" data-name="&lt;Path&gt;" class="cls-2" d="M16.64,137s12.79.37,11.87,3.48c-1.61,5.48-17.16-5.54-28.51.27a17.28,17.28,0,0,1,9.77-7.91L.19,125.54s14.44-3.51,25.56,4.77Z"/><path id="_Path_3" data-name="&lt;Path&gt;" class="cls-3" d="M120.73,122.7s-4.79,9.43-1.05,14.74c1.71,2.44,4.21,2.22,6.78,1.49,4.49-1.28,9-3.11,13.77-2.67,3.39.31,9.58,1.75,11.63,4.75a14,14,0,0,0-2-5.52,36.46,36.46,0,0,0-4.79-5.53l11.92.13s-9.07-11.6-27.67-9.06Z"/><path id="_Path_4" data-name="&lt;Path&gt;" class="cls-1" d="M132.86,131.76s-12.92-2.45-13.19,5.42c0,0-3.8-7.32,1.53-15.9l9,1.09Z"/><path id="_Path_5" data-name="&lt;Path&gt;" class="cls-4" d="M132.86,131.76s-3.4-14.05-3.41-14.05c-2.05-6-12.08-5.31-16.12-3.94-7.82,2.66-15.61,7.06-23.91,7.91s-16.21-2.19-23.92-4.89C31.73,105,17,122.13,17,122.13l-.46,14.82s27.22-15.21,47.82-5.43a47.52,47.52,0,0,0,40.89,0C121,124,132.86,131.76,132.86,131.76Z"/></g><g id="_Group_4" data-name="&lt;Group&gt;"><path id="_Compound_Path_" data-name="&lt;Compound Path&gt;" class="cls-5" d="M29.65,119.94a2.13,2.13,0,0,0,.49,0l.76-.12.92-.21c.33-.08.65-.16,1-.26s.62-.2.9-.31a5.15,5.15,0,0,0,.73-.33l.39,1.67a3.6,3.6,0,0,0-.76.06c-.3,0-.62.11-1,.19,0,.23.09.47.14.72s.12.5.18.75.13.51.21.76.14.48.22.7a9.25,9.25,0,0,0,.9-.37,3.83,3.83,0,0,0,.66-.38l.55,1.78-.74.15-1.13.23c-.43.09-.91.22-1.44.36s-1.1.32-1.69.54l-.34-1.64a4.16,4.16,0,0,0,.7,0c.27,0,.57-.08.88-.14q-.09-.47-.25-1.19c-.11-.48-.27-1.07-.46-1.75-.29.09-.55.18-.8.27s-.45.18-.62.26Z"/><path id="_Compound_Path_2" data-name="&lt;Compound Path&gt;" class="cls-5" d="M42.76,119.31a.78.78,0,0,0-.51.42,2.21,2.21,0,0,0-.22.87,6.68,6.68,0,0,0,0,1.24c.05.48.14,1,.26,1.6l-1.86.2c0-.11,0-.28,0-.53s0-.52,0-.82-.06-.61-.1-.92a4,4,0,0,0-.22-.84,1.42,1.42,0,0,0-.38-.58.6.6,0,0,0-.58-.13.81.81,0,0,0-.49.33,2,2,0,0,0-.27.78,8.14,8.14,0,0,0-.09,1.3c0,.53,0,1.17.06,1.91l-1.64.08a5.22,5.22,0,0,0,0-.72c0-.29,0-.6-.06-.94s-.07-.69-.12-1-.1-.71-.16-1-.12-.64-.18-.92-.12-.51-.17-.68l1.7-.29a1.65,1.65,0,0,0,0,.22c0,.09,0,.16,0,.21s.14-.14.22-.22a2.26,2.26,0,0,1,.31-.21,2.79,2.79,0,0,1,.43-.19,2.75,2.75,0,0,1,.58-.13,1.92,1.92,0,0,1,.89.07,2.32,2.32,0,0,1,.72.44,2.37,2.37,0,0,1,.78-.69,2.82,2.82,0,0,1,1.23-.33A2,2,0,0,1,44,118a2.75,2.75,0,0,1,.81.69,4.34,4.34,0,0,1,.59,1,9.17,9.17,0,0,1,.42,1.17,10,10,0,0,1,.27,1.18c.06.39.11.74.14,1l-1.77.32c0-.31-.05-.63-.09-1s-.1-.66-.17-1a8.07,8.07,0,0,0-.24-.89,3.47,3.47,0,0,0-.31-.71,1.3,1.3,0,0,0-.4-.43A.52.52,0,0,0,42.76,119.31Z"/><path id="_Compound_Path_3" data-name="&lt;Compound Path&gt;" class="cls-5" d="M49.81,121.74a.81.81,0,0,0,.53-.23,1.86,1.86,0,0,0,.39-.7,7.68,7.68,0,0,0,.3-1.26c.09-.52.17-1.14.25-1.89h1.64a7.21,7.21,0,0,0-.13.82c0,.32-.06.66-.08,1s0,.73,0,1.1,0,.73,0,1.07,0,.65,0,.93a4.94,4.94,0,0,0,.06.65L51,123.3a1.08,1.08,0,0,1,0-.11s0-.1,0-.16,0-.11,0-.16,0-.08,0-.12l-.26.17a1.62,1.62,0,0,1-.34.15,2.5,2.5,0,0,1-.45.12,3,3,0,0,1-.59.05A2.11,2.11,0,0,1,48.3,123a2.2,2.2,0,0,1-.73-.7,3.51,3.51,0,0,1-.42-1A6.39,6.39,0,0,1,47,120a8.51,8.51,0,0,1,.05-1.3,11.14,11.14,0,0,1,.22-1.24l1.76.09a7.05,7.05,0,0,0-.14,1c0,.33,0,.65,0,1a6.94,6.94,0,0,0,.07.87,3.1,3.1,0,0,0,.18.71,1.35,1.35,0,0,0,.3.46A.53.53,0,0,0,49.81,121.74Z"/><path id="_Compound_Path_4" data-name="&lt;Compound Path&gt;" class="cls-5" d="M54.38,118.95l.45.16c.19.06.43.12.71.18,0-.28.08-.54.1-.78s0-.43,0-.59l1.78.21c-.12.49-.22,1-.32,1.39l.62,0,.7,0L58,121.42l-.55-.21-.63-.17c-.18.94-.29,1.64-.34,2.13a3,3,0,0,0,0,.75l-2-.3a3.92,3.92,0,0,0,.21-.5c.07-.21.14-.44.22-.7s.14-.53.21-.81.13-.57.19-.84l-.61,0a4.13,4.13,0,0,0-.56,0Z"/><path id="_Compound_Path_5" data-name="&lt;Compound Path&gt;" class="cls-5" d="M65.05,127.33c-.27-.17-.59-.34-1-.53s-.74-.35-1.13-.51-.79-.33-1.19-.48-.78-.29-1.13-.42c.06-.08.17-.26.33-.53s.36-.63.59-1.08.48-1,.77-1.65.58-1.38.87-2.21c.3.2.63.39,1,.59s.7.37,1.06.53a11.13,11.13,0,0,0,1.09.44,10.12,10.12,0,0,0,1.08.32l-.54,1.35a9.62,9.62,0,0,0-.91-.5c-.29-.14-.56-.26-.8-.36s-.45-.17-.64-.22l-.45-.11-.2.37c-.08.14-.15.28-.23.44a6.08,6.08,0,0,0,1,.39l1,.27-.7,1.45a7.46,7.46,0,0,0-1-.7,4.1,4.1,0,0,0-.81-.33l-.17.42c0,.14-.1.27-.14.39a1.76,1.76,0,0,0,.51.35,7.21,7.21,0,0,0,.77.34l.83.27a6.9,6.9,0,0,0,.7.16Z"/><path id="_Compound_Path_6" data-name="&lt;Compound Path&gt;" class="cls-5" d="M70.1,124.77a.8.8,0,0,0-.59,0,1.87,1.87,0,0,0-.61.56,7.92,7.92,0,0,0-.71,1.1c-.26.46-.54,1-.86,1.71l-1.47-.72a7.06,7.06,0,0,0,.37-.62c.13-.26.26-.55.39-.85s.26-.64.39-1,.25-.67.36-1,.2-.61.28-.89a6.92,6.92,0,0,0,.17-.68l1.63.57a1.32,1.32,0,0,0-.08.19l-.08.19.3-.08.37,0a3,3,0,0,1,.46,0,2.3,2.3,0,0,1,.57.16,1.76,1.76,0,0,1,.86.62,2.42,2.42,0,0,1,.41,1,4,4,0,0,1,.06,1.15,9.17,9.17,0,0,1-.19,1.23c-.09.4-.2.79-.33,1.17s-.25.71-.37,1l-1.7-.57c.13-.28.24-.57.36-.88s.21-.62.28-.91a7.53,7.53,0,0,0,.17-.87,4.18,4.18,0,0,0,0-.75,1.45,1.45,0,0,0-.14-.56A.53.53,0,0,0,70.1,124.77Z"/><path id="_Compound_Path_7" data-name="&lt;Compound Path&gt;" class="cls-5" d="M76.1,131.06l.1-.16.1-.17a1.84,1.84,0,0,1-.7.16,2.31,2.31,0,0,1-.77-.12,3,3,0,0,1-1.13-.62,2.68,2.68,0,0,1-.65-.89,2.61,2.61,0,0,1-.21-1,3.09,3.09,0,0,1,.18-1.05,3.33,3.33,0,0,1,.52-1,2.82,2.82,0,0,1,.82-.71,2.66,2.66,0,0,1,1.07-.36,3,3,0,0,1,1.27.12,2,2,0,0,1,.38.16,3.1,3.1,0,0,1,.34.22,2.85,2.85,0,0,1,.26.23,1.23,1.23,0,0,1,.17.19.9.9,0,0,0,0-.15l0-.14,1.64.46a6.29,6.29,0,0,0-.3.66c-.11.28-.23.58-.34.92s-.22.69-.34,1.05-.21.73-.3,1.07-.16.67-.21,1a3.88,3.88,0,0,0-.07.73Zm-1-1.6a.94.94,0,0,0,.74,0,1.56,1.56,0,0,0,.6-.42,2.55,2.55,0,0,0,.42-.71,2.4,2.4,0,0,0,.17-.79,1.45,1.45,0,0,0-.13-.69.79.79,0,0,0-.49-.42,1.11,1.11,0,0,0-.73,0,1.62,1.62,0,0,0-.6.42,2.38,2.38,0,0,0-.58,1.42,1.48,1.48,0,0,0,.13.69A.89.89,0,0,0,75.1,129.45Z"/><path id="_Compound_Path_8" data-name="&lt;Compound Path&gt;" class="cls-5" d="M82.26,132.55a6,6,0,0,0-.35-.49c-.13-.18-.28-.34-.42-.51l-.42-.47-.34-.35c0,.25,0,.5-.06.75a4.33,4.33,0,0,0,0,.59l-2-.11a3.38,3.38,0,0,0,.24-.61,11.65,11.65,0,0,0,.27-1.15c.1-.47.19-1.06.28-1.73s.17-1.45.23-2.33l1.84.16c0,.18-.11.4-.17.65s-.13.57-.2.95l.41-.17.55-.22.6-.26.59-.29.83,1.5-.62.2-.77.27-.74.3-.53.23c.16.18.33.37.52.56s.38.36.58.53l.58.47c.18.15.35.27.5.37Z"/><path id="_Compound_Path_9" data-name="&lt;Compound Path&gt;" class="cls-5" d="M86.19,127.43a4.12,4.12,0,0,1,.5-.28c.21-.11.44-.22.7-.33s.54-.21.83-.32a6.92,6.92,0,0,1,.89-.23,4.4,4.4,0,0,1,.87-.1,2.22,2.22,0,0,1,.76.1,1.41,1.41,0,0,1,.59.35,1.36,1.36,0,0,1,.34.68,1.51,1.51,0,0,1,0,.62,2,2,0,0,1-.2.57,1.84,1.84,0,0,1-.31.47,1.23,1.23,0,0,1-.36.29,1.66,1.66,0,0,1,.7.15,1.41,1.41,0,0,1,.44.34,1.19,1.19,0,0,1,.22.42,1.31,1.31,0,0,1,0,.43,1.52,1.52,0,0,1-.47,1,2.94,2.94,0,0,1-1.11.61,8.28,8.28,0,0,1-1.58.32c-.6.06-1.23.1-1.89.1a5.38,5.38,0,0,0,0-.6c0-.25-.05-.52-.1-.83s-.1-.62-.16-1-.13-.67-.2-1-.16-.66-.24-1S86.28,127.68,86.19,127.43ZM88,129l.3,0,.51-.06c.19,0,.39-.09.59-.14a2.55,2.55,0,0,0,.55-.24,1.3,1.3,0,0,0,.39-.35.68.68,0,0,0,.12-.49.33.33,0,0,0-.24-.28,1.24,1.24,0,0,0-.58-.06,3.3,3.3,0,0,0-.82.19,5.16,5.16,0,0,0-1,.46Zm.25,1.36,0,.11,0,.23c0,.1,0,.2.05.31s0,.22.06.33a1.54,1.54,0,0,0,.34,0,3.21,3.21,0,0,0,.46,0l.49-.09a2.34,2.34,0,0,0,.44-.17.93.93,0,0,0,.3-.24.43.43,0,0,0,.08-.33.42.42,0,0,0-.23-.32,1.13,1.13,0,0,0-.5-.12,3.5,3.5,0,0,0-.71.07A6.24,6.24,0,0,0,88.26,130.38Z"/><path id="_Compound_Path_10" data-name="&lt;Compound Path&gt;" class="cls-5" d="M97.62,127.68a3.15,3.15,0,0,1,.06,1,2,2,0,0,1-.27.8,2.08,2.08,0,0,1-.56.62,4.16,4.16,0,0,1-.85.48,3,3,0,0,1-1.27.26,2.49,2.49,0,0,1-1.07-.27,2.61,2.61,0,0,1-.82-.68,3,3,0,0,1-.53-.94,3.24,3.24,0,0,1-.19-1.07,2.81,2.81,0,0,1,.19-1.07,2.69,2.69,0,0,1,.62-.93,3,3,0,0,1,1.1-.68,2.34,2.34,0,0,1,1.08-.13,2.48,2.48,0,0,1,1,.34,2.7,2.7,0,0,1,.8.75,3,3,0,0,1,.48,1.08l-3.51,1.3a1.44,1.44,0,0,0,.55.78,1.06,1.06,0,0,0,.88.13A1,1,0,0,0,96,129a1.35,1.35,0,0,0,.17-.83Zm-2-.93a1.16,1.16,0,0,0-.59-.45,1,1,0,0,0-.6,0,1.13,1.13,0,0,0-.48.41,1.42,1.42,0,0,0-.24.71Z"/><path id="_Compound_Path_11" data-name="&lt;Compound Path&gt;" class="cls-5" d="M101.27,124.79a1.65,1.65,0,0,0-.57-.4.58.58,0,0,0-.51,0,1,1,0,0,0-.46.46,1.5,1.5,0,0,0-.11.8,5.23,5.23,0,0,0,.3,1.23,14.31,14.31,0,0,0,.77,1.75l-1.62.9a6.19,6.19,0,0,0-.2-.71c-.1-.3-.21-.62-.35-1s-.28-.69-.43-1.07-.31-.73-.46-1.06-.31-.64-.44-.92-.25-.48-.35-.64l1.47-.83.06.13.11.21.11.21.07.13a2.86,2.86,0,0,1,.14-.27,1.57,1.57,0,0,1,.23-.29,2.21,2.21,0,0,1,.35-.3,2.82,2.82,0,0,1,.51-.3,2,2,0,0,1,.68-.18,2,2,0,0,1,.65.05,2.34,2.34,0,0,1,.62.26,3.89,3.89,0,0,1,.59.41Z"/><path id="_Compound_Path_12" data-name="&lt;Compound Path&gt;" class="cls-5" d="M106,125.81a1.87,1.87,0,0,0,.85-.19,2.14,2.14,0,0,0,.68-.51,1.9,1.9,0,0,0,.4-.73,1.55,1.55,0,0,0,0-.84,3,3,0,0,1-.69.88,2.9,2.9,0,0,1-.85.47,2.44,2.44,0,0,1-.9.12,2.63,2.63,0,0,1-.87-.18,2.37,2.37,0,0,1-.72-.44,1.84,1.84,0,0,1-.48-.65,3,3,0,0,1-.23-.88,2.42,2.42,0,0,1,.08-.9,2.23,2.23,0,0,1,.44-.83,2.74,2.74,0,0,1,.88-.67,2.59,2.59,0,0,1,.88-.26,2.38,2.38,0,0,1,1,.08l-.08-.16-.09-.17c0-.05-.06-.11-.1-.15l-.07-.11,1.55-.77c.09.19.19.4.33.65s.27.51.41.79.29.58.45.9.29.62.41.94a5.84,5.84,0,0,1,.4,1.4,3,3,0,0,1-.06,1.21,2.74,2.74,0,0,1-.54,1,4.42,4.42,0,0,1-1.07.89,3.4,3.4,0,0,1-1.09.42,3.54,3.54,0,0,1-1.12,0Zm-1.16-2.88a.94.94,0,0,0,.9.66,1.33,1.33,0,0,0,.55-.13,1.46,1.46,0,0,0,.47-.34,1.08,1.08,0,0,0,.25-.5.86.86,0,0,0-.08-.59.9.9,0,0,0-.35-.4,1,1,0,0,0-.48-.14,1.23,1.23,0,0,0-.52.09,1.16,1.16,0,0,0-.45.29,1.22,1.22,0,0,0-.28.46A1.09,1.09,0,0,0,104.81,122.93Z"/><path id="_Compound_Path_13" data-name="&lt;Compound Path&gt;" class="cls-5" d="M109.38,119.37a.89.89,0,0,1,0-.51.86.86,0,0,1,.23-.38.93.93,0,0,1,.38-.23,1,1,0,0,1,.44,0,.9.9,0,0,1,.41.18.88.88,0,0,1,.27.43.85.85,0,0,1,0,.49.86.86,0,0,1-.23.37,1.17,1.17,0,0,1-.38.22,1.07,1.07,0,0,1-.44,0,.79.79,0,0,1-.4-.18A.84.84,0,0,1,109.38,119.37Zm1.49,4.83a.93.93,0,0,1,0-.2c0-.07,0-.17,0-.29s0-.27-.09-.45-.1-.38-.18-.64-.18-.56-.31-.91-.29-.76-.48-1.22l1.71-.64a6.07,6.07,0,0,0,.17.91,9.82,9.82,0,0,0,.3,1,9.72,9.72,0,0,0,.39,1,5.16,5.16,0,0,0,.47.83Z"/><path id="_Compound_Path_14" data-name="&lt;Compound Path&gt;" class="cls-5" d="M118.48,122.48l-.31,0c-.19,0-.46,0-.85.09s-.9.12-1.52.23-1.41.26-2.33.47l-.26-1.71.57-.59.53-.56c.17-.2.35-.41.52-.64a7.74,7.74,0,0,0,.52-.84l-.56,0-.69.08-.75.14a6.17,6.17,0,0,0-.73.22l-.33-1.73h.48l1-.08c.42,0,.94-.11,1.54-.21s1.3-.22,2.11-.4l.29,1.46a8.5,8.5,0,0,0-.74.77c-.24.28-.46.57-.67.85s-.41.54-.59.8a6.93,6.93,0,0,1-.5.63c.3-.05.59-.12.88-.19s.56-.15.82-.23l.7-.25c.21-.08.38-.16.52-.23Z"/><path id="_Compound_Path_15" data-name="&lt;Compound Path&gt;" class="cls-5" d="M119.19,122.44a1,1,0,0,1,0-.19,2.34,2.34,0,0,0,.06-.29c0-.12,0-.27.06-.45s0-.4,0-.67,0-.59,0-1,0-.82-.08-1.32l1.83-.07a8.07,8.07,0,0,0-.12.92q0,.51,0,1.05a10,10,0,0,0,.07,1.06,4.73,4.73,0,0,0,.18.93Zm.09-5.05a.84.84,0,0,1,.14-.49.86.86,0,0,1,.33-.29.93.93,0,0,1,.43-.09,1,1,0,0,1,.43.1.81.81,0,0,1,.45.79.81.81,0,0,1-.13.48.89.89,0,0,1-.33.28,1.08,1.08,0,0,1-.43.09,1.05,1.05,0,0,1-.43-.1.9.9,0,0,1-.33-.29A.84.84,0,0,1,119.28,117.39Z"/></g></g><g id="_Group_5" data-name="&lt;Group&gt;"><path id="_Path_6" data-name="&lt;Path&gt;" class="cls-6" d="M110.35,107.59a5.27,5.27,0,0,0,5.26-5.26V20.08a5.28,5.28,0,0,0-5.26-5.27H43.63a5.28,5.28,0,0,0-5.26,5.27v82.24a5.27,5.27,0,0,0,5.26,5.26Z"/><rect id="_Path_7" data-name="&lt;Path&gt;" class="cls-7" x="41.69" y="18.29" width="70.59" height="85.83" rx="2.37" ry="2.37"/><g id="_Group_6" data-name="&lt;Group&gt;"><g id="_Group_7" data-name="&lt;Group&gt;"><g id="_Group_8" data-name="&lt;Group&gt;"><ellipse id="_Path_8" data-name="&lt;Path&gt;" class="cls-8" cx="76.54" cy="78.72" rx="4.66" ry="3.71"/><path id="_Path_9" data-name="&lt;Path&gt;" class="cls-8" d="M76.54,78.71"/></g><path id="_Path_10" data-name="&lt;Path&gt;" class="cls-8" d="M106.48,95.26c-.09,0-4.46,1.24-4.46-7.22,0,0-.76-6.85,4.18-6.56,0,0,5.13-.66,4.56,6.37C110.76,87.84,112.37,95.07,106.48,95.26Z"/><path id="_Path_11" data-name="&lt;Path&gt;" class="cls-8" d="M77.84,96.61c-.1,0-4.34-.4-4.46-7.22,0,0-.77-6.84,4.17-6.56,0,0,4.78-.21,5,6.34C82.53,89.17,83.73,96.42,77.84,96.61Z"/><path id="_Path_12" data-name="&lt;Path&gt;" class="cls-8" d="M75.78,73.49c-.09,0-4.53-.06-4.65-6.88,0,0-.67-5.85,4.18-6.56,0,0,4.79-.21,5,6.34C80.28,66.39,81.86,74.54,75.78,73.49Z"/><path id="_Path_13" data-name="&lt;Path&gt;" class="cls-8" d="M107.79,71.51c-.09,0-3.52.31-4.36-6.36,0,0-1.44-5.52,1.82-7.57,0,0,4.59-2.87,6,4.87C111.3,62.46,113.89,71.72,107.79,71.51Z"/><path id="_Path_14" data-name="&lt;Path&gt;" class="cls-8" d="M99.49,49.28c-.09,0-5.38-.17-4.09-7.86,0,0,.26-5.73,4.12-5.87,0,0,5.24-.92,4.51,7.35C104,42.9,103.82,49,99.49,49.28Z"/><path id="_Path_15" data-name="&lt;Path&gt;" class="cls-8" d="M68.21,52.37c-.1,0-4.5,1.45-5.51-6.94,0,0-1.33-4.81,2.43-5.68,0,0,4.47-2.66,6.32,5.49C71.45,45.24,72.54,52.58,68.21,52.37Z"/><path id="_Path_16" data-name="&lt;Path&gt;" class="cls-8" d="M50.78,41.07s-2.28-5.13,1.34-5.7c0,0,3.84-1.47,5.32,3.52,0,0,4.37-1.85,4.8.57,0,0,1.1,2.33-3,3.71,0,0,4.51,10.6,0,12,0,0-5.46,2.57-7.27-8.69,0,0-7.65,2.89-8.17-1.33C43.79,45.16,42.55,41.83,50.78,41.07Z"/><path id="_Path_17" data-name="&lt;Path&gt;" class="cls-8" d="M73.73,42s.48-8.48,5.07-7c0,0,3.21.74,3.05,3.88,0,0,3.08-4.12,7.23-3.3,0,0,6.12.19,4.89,10.29,0,0-.27,5.72-4.59,5.4,0,0-6.38-.41-3.65-9.15,0,0-4.13,10.94-9.36,8.52C76.3,50.59,72.79,50.07,73.73,42Z"/><path id="_Path_18" data-name="&lt;Path&gt;" class="cls-8" d="M44.22,67.12s-3.57-8.41,2.23-8.89c0,0,4.42-1.43,5.7,7.18,0,0,.62-7.51,4.47-7.08,0,0,3.47-1,4.61,7.13,0,0,.9-8.46,6.37-7.22,0,0,4.47.24,1.19,8.93,0,0-2.81,6.32-7.37,5.85,0,0-4.61.57-5.33-4.71,0,0-1.23,5.23-5.41,5.42C50.68,73.73,46.26,74.25,44.22,67.12Z"/><path id="_Path_19" data-name="&lt;Path&gt;" class="cls-8" d="M81.18,65s-.71-8.46,4-7.65c0,0,3.28.29,3.57,3.42,0,0,2.47-4.51,6.7-4.28,0,0,6.08-.67,6.28,9.5,0,0,.52,5.71-3.8,6,0,0-6.37.47-4.89-8.56,0,0-2.57,11.41-8.08,9.75C84.92,73.2,81.38,73.17,81.18,65Z"/><path id="_Path_20" data-name="&lt;Path&gt;" class="cls-8" d="M89.19,80.26s-.09-5.62,3.45-4.73c0,0,4.12.15,3.53,5.32,0,0,4.74,0,4.19,2.41,0,0,.09,2.57-4.21,2.24,0,0,0,11.52-4.69,11.07-.05,0-6,.22-3.29-10.85,0,0-8.19-.32-7-4.41C81.16,81.29,81.32,77.74,89.19,80.26Z"/><g id="_Group_9" data-name="&lt;Group&gt;"><path id="_Path_21" data-name="&lt;Path&gt;" class="cls-8" d="M97,30.51c.39-2,2.75-3.24,5.28-2.74s4.25,2.52,3.86,4.53-2.75,3.24-5.27,2.75S96.58,32.52,97,30.51Z"/><path id="_Path_22" data-name="&lt;Path&gt;" class="cls-8" d="M101.53,31.4"/></g><g id="_Group_10" data-name="&lt;Group&gt;"><path id="_Path_23" data-name="&lt;Path&gt;" class="cls-8" d="M61.18,35.73c-.5-2,1.12-4.1,3.62-4.72s4.92.48,5.42,2.47-1.13,4.1-3.62,4.72S61.67,37.71,61.18,35.73Z"/><path id="_Path_24" data-name="&lt;Path&gt;" class="cls-8" d="M65.69,34.6"/></g><g id="_Group_11" data-name="&lt;Group&gt;"><path id="_Path_25" data-name="&lt;Path&gt;" class="cls-8" d="M71.31,55.9c0-2,2.08-3.7,4.66-3.7s4.66,1.66,4.66,3.7S78.54,59.61,76,59.61,71.31,58,71.31,55.9Z"/><path id="_Path_26" data-name="&lt;Path&gt;" class="cls-8" d="M76,55.9"/></g><g id="_Group_12" data-name="&lt;Group&gt;"><path id="_Path_27" data-name="&lt;Path&gt;" class="cls-8" d="M100.59,53c0-2,2.09-3.7,4.66-3.7s4.66,1.66,4.66,3.7-2.09,3.71-4.66,3.71S100.59,55.1,100.59,53Z"/><path id="_Path_28" data-name="&lt;Path&gt;" class="cls-8" d="M105.25,53"/></g><g id="_Group_13" data-name="&lt;Group&gt;"><path id="_Path_29" data-name="&lt;Path&gt;" class="cls-8" d="M101,77c0-2,2.08-3.7,4.65-3.7s4.66,1.65,4.66,3.7-2.08,3.71-4.66,3.71S101,79.05,101,77Z"/><path id="_Path_30" data-name="&lt;Path&gt;" class="cls-8" d="M105.63,77"/></g><path id="_Compound_Path_16" data-name="&lt;Compound Path&gt;" class="cls-8" d="M71.36,88.94h0s-.19-8.51-11-5.37c-.15,0,4-10.84-4.28-9.26,0,0-4.85,1.57-4.66,12.83,0,0,.43,11.12,11.41,11.12C62.85,98.25,71.69,98,71.36,88.94Zm-9.72,3.28a2.16,2.16,0,1,1,2.49-2.14A2.34,2.34,0,0,1,61.64,92.22Z"/></g><g id="_Group_14" data-name="&lt;Group&gt;"><path id="_Path_31" data-name="&lt;Path&gt;" class="cls-9" d="M98.47,48.27c-.09,0-5.39-.18-4.09-7.87,0,0,.26-5.74,4.11-5.88,0,0,5.25-.92,4.51,7.36C103,41.88,102.79,47.94,98.47,48.27Z"/><path id="_Path_32" data-name="&lt;Path&gt;" class="cls-9" d="M67.2,51.34c-.1,0-4.51,1.45-5.52-6.94,0,0-1.32-4.8,2.43-5.68,0,0,4.47-2.66,6.32,5.49C70.42,44.21,71.52,51.56,67.2,51.34Z"/><path id="_Path_33" data-name="&lt;Path&gt;" class="cls-9" d="M49.75,40.06s-2.27-5.14,1.33-5.71c0,0,3.85-1.47,5.33,3.52,0,0,4.37-1.86,4.8.57,0,0,1.09,2.33-3,3.71,0,0,4.52,10.61,0,12,0,0-5.46,2.57-7.27-8.69,0,0-7.66,2.9-8.18-1.33C42.77,44.14,41.53,40.81,49.75,40.06Z"/><path id="_Path_34" data-name="&lt;Path&gt;" class="cls-9" d="M72.71,41s.47-8.48,5.07-7c0,0,3.2.74,3.05,3.89,0,0,3.08-4.13,7.23-3.3,0,0,6.12.19,4.89,10.28,0,0-.28,5.72-4.6,5.4,0,0-6.37-.41-3.66-9.15,0,0-4.13,10.94-9.36,8.53C75.28,49.57,71.77,49,72.71,41Z"/><g id="_Group_15" data-name="&lt;Group&gt;"><path id="_Path_35" data-name="&lt;Path&gt;" class="cls-9" d="M95.94,29.49c.39-2,2.75-3.24,5.27-2.75s4.26,2.52,3.87,4.53S102.33,34.51,99.8,34,95.55,31.5,95.94,29.49Z"/><path id="_Path_36" data-name="&lt;Path&gt;" class="cls-9" d="M100.51,30.39"/></g><g id="_Group_16" data-name="&lt;Group&gt;"><path id="_Path_37" data-name="&lt;Path&gt;" class="cls-9" d="M60.15,34.7c-.5-2,1.13-4.1,3.62-4.72s4.92.48,5.42,2.47-1.13,4.09-3.63,4.72S60.65,36.69,60.15,34.7Z"/><path id="_Path_38" data-name="&lt;Path&gt;" class="cls-9" d="M64.67,33.58"/></g></g><g id="_Group_17" data-name="&lt;Group&gt;"><path id="_Path_39" data-name="&lt;Path&gt;" class="cls-10" d="M74.75,72.47c-.09,0-4.52-.07-4.66-6.88,0,0-.66-5.85,4.19-6.56,0,0,4.78-.22,5,6.34C79.26,65.37,80.84,73.51,74.75,72.47Z"/><path id="_Path_40" data-name="&lt;Path&gt;" class="cls-10" d="M106.76,70.49c-.09,0-3.51.31-4.36-6.36,0,0-1.44-5.51,1.82-7.56,0,0,4.59-2.87,6,4.87C110.28,61.44,112.87,70.7,106.76,70.49Z"/><path id="_Path_41" data-name="&lt;Path&gt;" class="cls-10" d="M43.2,66.09s-3.57-8.41,2.23-8.88c.06,0,4.42-1.43,5.71,7.18,0,0,.62-7.51,4.47-7.08,0,0,3.47-1,4.61,7.13,0,0,.9-8.46,6.36-7.22,0,0,4.48.24,1.19,8.93,0,0-2.8,6.32-7.36,5.85,0,0-4.61.57-5.33-4.71,0,0-1.24,5.23-5.42,5.42C49.66,72.71,45.24,73.23,43.2,66.09Z"/><path id="_Path_42" data-name="&lt;Path&gt;" class="cls-10" d="M80.17,64s-.72-8.46,4-7.65c0,0,3.28.29,3.56,3.42,0,0,2.47-4.51,6.7-4.28,0,0,6.09-.67,6.27,9.5,0,0,.52,5.7-3.8,6,0,0-6.37.48-4.89-8.55,0,0-2.57,11.41-8.08,9.74C83.9,72.18,80.35,72.15,80.17,64Z"/><g id="_Group_18" data-name="&lt;Group&gt;"><ellipse id="_Path_43" data-name="&lt;Path&gt;" class="cls-10" cx="74.95" cy="54.88" rx="4.66" ry="3.71"/><path id="_Path_44" data-name="&lt;Path&gt;" class="cls-10" d="M74.95,54.88"/></g><g id="_Group_19" data-name="&lt;Group&gt;"><ellipse id="_Path_45" data-name="&lt;Path&gt;" class="cls-10" cx="104.23" cy="52.03" rx="4.66" ry="3.71"/><path id="_Path_46" data-name="&lt;Path&gt;" class="cls-10" d="M104.23,52"/></g></g><g id="_Group_20" data-name="&lt;Group&gt;"><g id="_Group_21" data-name="&lt;Group&gt;"><path id="_Path_47" data-name="&lt;Path&gt;" class="cls-11" d="M70.86,77.7c0-2.05,2.09-3.71,4.65-3.71s4.66,1.66,4.66,3.71-2.09,3.7-4.66,3.7S70.86,79.74,70.86,77.7Z"/><path id="_Path_48" data-name="&lt;Path&gt;" class="cls-11" d="M75.52,77.7"/></g><path id="_Path_49" data-name="&lt;Path&gt;" class="cls-11" d="M105.46,94.24c-.1,0-4.47,1.23-4.47-7.23,0,0-.76-6.84,4.19-6.56,0,0,5.14-.67,4.56,6.37C109.74,86.83,111.35,94,105.46,94.24Z"/><path id="_Path_50" data-name="&lt;Path&gt;" class="cls-11" d="M76.81,95.59c-.09,0-4.34-.4-4.47-7.22,0,0-.76-6.85,4.18-6.57,0,0,4.79-.21,5,6.35C81.5,88.15,82.71,95.4,76.81,95.59Z"/><path id="_Path_51" data-name="&lt;Path&gt;" class="cls-11" d="M88.17,79.24s-.1-5.62,3.45-4.73c0,0,4.13.15,3.53,5.32,0,0,4.74,0,4.19,2.4,0,0,.1,2.57-4.21,2.24,0,0,0,11.52-4.69,11.07,0,0-6,.23-3.3-10.85,0,0-8.17-.32-7-4.42C80.13,80.27,80.29,76.72,88.17,79.24Z"/><g id="_Group_22" data-name="&lt;Group&gt;"><ellipse id="_Path_52" data-name="&lt;Path&gt;" class="cls-11" cx="104.6" cy="75.98" rx="4.66" ry="3.71"/><path id="_Path_53" data-name="&lt;Path&gt;" class="cls-11" d="M104.61,76"/></g><path id="_Compound_Path_17" data-name="&lt;Compound Path&gt;" class="cls-11" d="M70.33,87.92s-.19-8.51-11-5.37c-.15,0,4-10.84-4.28-9.27,0,0-4.85,1.57-4.66,12.83,0,0,.43,11.13,11.41,11.13C61.83,97.23,70.67,96.94,70.33,87.92ZM60.62,91.2a2.17,2.17,0,1,1,2.49-2.14A2.33,2.33,0,0,1,60.62,91.2Z"/></g></g><path id="_Path_54" data-name="&lt;Path&gt;" class="cls-12" d="M55.54,8.66c7.17-4,21.14-6,21.14-6s-12.73,2-22,6.69Z"/><path id="_Path_55" data-name="&lt;Path&gt;" class="cls-12" d="M98,8.66c-7.16-4-21.13-6-21.13-6s12.73,2,22,6.69Z"/><path id="_Path_56" data-name="&lt;Path&gt;" class="cls-13" d="M98.74,12.6a37.67,37.67,0,0,0-2.83,5.59c-.87,1.54-1.06,2.32-2.79,2.6-2.34-.22-5-.65-8-1,10.38,2.35,7.69,6.19,11.34,5.52,2.22-1,.48-4.72,5.39-4.14C105.27,21.06,104.41,16.15,98.74,12.6Z"/><path id="_Path_57" data-name="&lt;Path&gt;" class="cls-13" d="M55.23,12.6a37.21,37.21,0,0,1,2.83,5.59c.87,1.54,1.06,2.32,2.79,2.6,2.35-.22,5-.65,8-1C58.52,22.12,61.21,26,57.55,25.29c-2.21-1-.48-4.72-5.38-4.14C48.7,21.06,49.56,16.15,55.23,12.6Z"/><path id="_Path_58" data-name="&lt;Path&gt;" class="cls-13" d="M76.81,5.61s10.82,0,18.28,2.07c0,0,6,1.25,3.85,4.37L95.66,18.5s-.92,2.89-3.27,2.31A89.2,89.2,0,0,0,76.9,19.46a90.93,90.93,0,0,0-15.58,1.34C59,21.39,58,18.5,58,18.5l-3.27-6.45c-2.11-3.12,3.8-4.37,3.85-4.37C66.08,5.61,76.81,5.61,76.81,5.61Z"/><g id="_Group_23" data-name="&lt;Group&gt;"><line id="_Path_59" data-name="&lt;Path&gt;" class="cls-14" x1="81.27" y1="1.2" x2="78.94" y2="0.09"/><line id="_Path_60" data-name="&lt;Path&gt;" class="cls-14" x1="80.14" y1="5.33" x2="77.04" y2="5.41"/><line id="_Path_61" data-name="&lt;Path&gt;" class="cls-14" x1="83.69" y1="1.78" x2="81.37" y2="0.67"/><line id="_Path_62" data-name="&lt;Path&gt;" class="cls-14" x1="82.57" y1="5.91" x2="79.46" y2="5.99"/><line id="_Path_63" data-name="&lt;Path&gt;" class="cls-14" x1="86.02" y1="2.45" x2="83.7" y2="1.34"/><line id="_Path_64" data-name="&lt;Path&gt;" class="cls-14" x1="84.91" y1="6.58" x2="81.8" y2="6.66"/><line id="_Path_65" data-name="&lt;Path&gt;" class="cls-14" x1="88.81" y1="3.14" x2="86.53" y2="1.96"/><line id="_Path_66" data-name="&lt;Path&gt;" class="cls-14" x1="87.56" y1="7.23" x2="84.45" y2="7.2"/><line id="_Path_67" data-name="&lt;Path&gt;" class="cls-14" x1="91.36" y1="3.93" x2="89.08" y2="2.74"/><line id="_Path_68" data-name="&lt;Path&gt;" class="cls-14" x1="90.1" y1="8.01" x2="86.99" y2="7.99"/></g><g id="_Group_24" data-name="&lt;Group&gt;"><path id="_Path_69" data-name="&lt;Path&gt;" class="cls-15" d="M83.77,4c-.72,0-.71.94-1.55,1.33a2.44,2.44,0,0,1-2.1,0,2.77,2.77,0,0,0,1.35-1.07,1.46,1.46,0,0,1,1-.59,1.37,1.37,0,0,1-.55-.93,2.74,2.74,0,0,0-.69-1.57,2.46,2.46,0,0,1,1.87,1C83.61,2.89,83.13,3.74,83.77,4Z"/><path id="_Path_70" data-name="&lt;Path&gt;" class="cls-15" d="M86.19,4.61c-.71,0-.7.94-1.54,1.32a2.42,2.42,0,0,1-2.1,0,2.64,2.64,0,0,0,1.34-1.07,1.52,1.52,0,0,1,1-.6,1.35,1.35,0,0,1-.55-.93,2.79,2.79,0,0,0-.69-1.57,2.46,2.46,0,0,1,1.87,1C86,3.47,85.55,4.32,86.19,4.61Z"/><path id="_Path_71" data-name="&lt;Path&gt;" class="cls-15" d="M88.53,5.28c-.72,0-.71.93-1.55,1.33a2.46,2.46,0,0,1-2.11,0,2.77,2.77,0,0,0,1.35-1.06,1.46,1.46,0,0,1,1-.59A1.34,1.34,0,0,1,86.64,4a2.75,2.75,0,0,0-.69-1.57,2.45,2.45,0,0,1,1.87,1C88.37,4.14,87.89,5,88.53,5.28Z"/><path id="_Path_72" data-name="&lt;Path&gt;" class="cls-15" d="M91.22,6.05c-.72,0-.74.91-1.59,1.27a2.42,2.42,0,0,1-2.1-.1,2.71,2.71,0,0,0,1.38-1,1.46,1.46,0,0,1,1-.56,1.32,1.32,0,0,1-.52-1,2.73,2.73,0,0,0-.63-1.59,2.46,2.46,0,0,1,1.83,1C91.1,4.91,90.59,5.75,91.22,6.05Z"/><path id="_Path_73" data-name="&lt;Path&gt;" class="cls-15" d="M93.77,6.84c-.71,0-.74.91-1.59,1.27A2.43,2.43,0,0,1,90.07,8a2.75,2.75,0,0,0,1.38-1,1.48,1.48,0,0,1,1-.57,1.35,1.35,0,0,1-.52-.95,2.64,2.64,0,0,0-.64-1.59,2.46,2.46,0,0,1,1.83,1C93.64,5.69,93.14,6.53,93.77,6.84Z"/><path id="_Path_74" data-name="&lt;Path&gt;" class="cls-15" d="M81.76,3.53a2.83,2.83,0,0,1-2.34,0,2.85,2.85,0,0,0-1.56-.72A2.61,2.61,0,0,1,80,2.35C80.88,2.59,81.1,3.73,81.76,3.53Z"/></g><g id="_Group_25" data-name="&lt;Group&gt;"><line id="_Path_75" data-name="&lt;Path&gt;" class="cls-14" x1="72.29" y1="1.2" x2="74.61" y2="0.09"/><line id="_Path_76" data-name="&lt;Path&gt;" class="cls-14" x1="73.4" y1="5.33" x2="76.51" y2="5.41"/><line id="_Path_77" data-name="&lt;Path&gt;" class="cls-14" x1="69.86" y1="1.78" x2="72.19" y2="0.67"/><line id="_Path_78" data-name="&lt;Path&gt;" class="cls-14" x1="70.98" y1="5.91" x2="74.08" y2="5.99"/><line id="_Path_79" data-name="&lt;Path&gt;" class="cls-14" x1="67.52" y1="2.45" x2="69.85" y2="1.34"/><line id="_Path_80" data-name="&lt;Path&gt;" class="cls-14" x1="68.65" y1="6.58" x2="71.75" y2="6.66"/><line id="_Path_81" data-name="&lt;Path&gt;" class="cls-14" x1="64.73" y1="3.14" x2="67.02" y2="1.96"/><line id="_Path_82" data-name="&lt;Path&gt;" class="cls-14" x1="66" y1="7.23" x2="69.11" y2="7.2"/><line id="_Path_83" data-name="&lt;Path&gt;" class="cls-14" x1="62.19" y1="3.93" x2="64.48" y2="2.74"/><line id="_Path_84" data-name="&lt;Path&gt;" class="cls-14" x1="63.45" y1="8.01" x2="66.55" y2="7.99"/></g><g id="_Group_26" data-name="&lt;Group&gt;"><path id="_Path_85" data-name="&lt;Path&gt;" class="cls-15" d="M69.78,4c.72,0,.7.94,1.56,1.33a2.43,2.43,0,0,0,2.09,0,2.73,2.73,0,0,1-1.34-1.07,1.46,1.46,0,0,0-1-.59,1.39,1.39,0,0,0,.55-.93,2.72,2.72,0,0,1,.69-1.57,2.45,2.45,0,0,0-1.87,1C69.94,2.89,70.42,3.74,69.78,4Z"/><path id="_Path_86" data-name="&lt;Path&gt;" class="cls-15" d="M67.35,4.61c.72,0,.71.94,1.55,1.32a2.41,2.41,0,0,0,2.1,0,2.68,2.68,0,0,1-1.34-1.07,1.5,1.5,0,0,0-1-.6,1.32,1.32,0,0,0,.55-.93,2.73,2.73,0,0,1,.69-1.57,2.44,2.44,0,0,0-1.86,1C67.52,3.47,68,4.32,67.35,4.61Z"/><path id="_Path_87" data-name="&lt;Path&gt;" class="cls-15" d="M65,5.28c.72,0,.7.93,1.55,1.33a2.47,2.47,0,0,0,2.11,0,2.76,2.76,0,0,1-1.35-1.06,1.47,1.47,0,0,0-1-.59A1.34,1.34,0,0,0,66.91,4a2.75,2.75,0,0,1,.69-1.57,2.45,2.45,0,0,0-1.87,1C65.18,4.14,65.66,5,65,5.28Z"/><path id="_Path_88" data-name="&lt;Path&gt;" class="cls-15" d="M62.33,6.05c.71,0,.74.91,1.59,1.27a2.43,2.43,0,0,0,2.1-.1,2.67,2.67,0,0,1-1.38-1,1.46,1.46,0,0,0-1-.56,1.34,1.34,0,0,0,.52-1,2.72,2.72,0,0,1,.63-1.59,2.49,2.49,0,0,0-1.83,1C62.45,4.91,63,5.75,62.33,6.05Z"/><path id="_Path_89" data-name="&lt;Path&gt;" class="cls-15" d="M59.78,6.84c.72,0,.74.91,1.6,1.27A2.42,2.42,0,0,0,63.47,8,2.73,2.73,0,0,1,62.1,7a1.48,1.48,0,0,0-1-.57,1.33,1.33,0,0,0,.52-.95,2.7,2.7,0,0,1,.63-1.59,2.43,2.43,0,0,0-1.83,1C59.9,5.69,60.41,6.53,59.78,6.84Z"/><path id="_Path_90" data-name="&lt;Path&gt;" class="cls-15" d="M71.79,3.53a2.83,2.83,0,0,0,2.34,0,2.86,2.86,0,0,1,1.56-.72,2.6,2.6,0,0,0-2.12-.49C72.68,2.59,72.44,3.73,71.79,3.53Z"/></g><path id="_Compound_Path_18" data-name="&lt;Compound Path&gt;" class="cls-9" d="M59.2,15.25l.24-.07a2.54,2.54,0,0,0,1,1.17,1.53,1.53,0,0,0,1.12.15.92.92,0,0,0,.81-1.14.79.79,0,0,0-.4-.53,3.2,3.2,0,0,0-.75-.23l-.6-.13a3.4,3.4,0,0,1-1.3-.49,1.48,1.48,0,0,1-.56-.86,1.77,1.77,0,0,1,.15-1.22,1.66,1.66,0,0,1,1.19-.85A3,3,0,0,1,61,11h.52a.21.21,0,0,0,.17-.12.74.74,0,0,0,0-.23l.24-.07.44,1.78-.23.06a2.46,2.46,0,0,0-.85-.91,1.34,1.34,0,0,0-1.11-.2,1,1,0,0,0-.6.4.72.72,0,0,0-.1.6.73.73,0,0,0,.38.52,5.18,5.18,0,0,0,1.13.33l.69.15a2.33,2.33,0,0,1,.77.29,1.58,1.58,0,0,1,.73,1,1.76,1.76,0,0,1-.2,1.29,2,2,0,0,1-1.42.93,3.29,3.29,0,0,1-.52.08,2.53,2.53,0,0,1-.53,0l-.18,0h-.21A.2.2,0,0,0,60,17a.63.63,0,0,0,0,.23l-.24.06Zm8.65-1a5.53,5.53,0,0,0,0-1.59,4.07,4.07,0,0,0-.68-2A1.23,1.23,0,0,0,66,10.2c-.63.09-1,.52-1.14,1.31a5.75,5.75,0,0,0,0,1.58,5.35,5.35,0,0,0,.41,1.54,1.34,1.34,0,0,0,1.45.93C67.34,15.47,67.71,15,67.85,14.26Zm.29-3.83a2.88,2.88,0,0,1,1.16,2,2.86,2.86,0,0,1-.55,2.27,3,3,0,0,1-5.35-1.39,3,3,0,0,1,.52-2.27,2.87,2.87,0,0,1,2-1.15A3,3,0,0,1,68.13,10.43ZM69.61,15a1.48,1.48,0,0,0,.48-.11.52.52,0,0,0,.22-.52l-.21-4.06a.52.52,0,0,0-.27-.49,1.48,1.48,0,0,0-.5-.07V9.58l2.59-.13a4,4,0,0,1,1.25.1,1.21,1.21,0,0,1,1,1.14,1,1,0,0,1-.34.85A1.88,1.88,0,0,1,73,12V12a2.31,2.31,0,0,1,.83.26A1.33,1.33,0,0,1,74,14.6a3,3,0,0,1-1.69.52l-2.7.14Zm3-3.33a1.2,1.2,0,0,0,.21-.92,1.56,1.56,0,0,0-.21-.79A.69.69,0,0,0,72,9.71a.57.57,0,0,0-.36.11.4.4,0,0,0-.09.32l.1,1.89A1.58,1.58,0,0,0,72.65,11.71Zm-.82,3a.43.43,0,0,0,.4.17,1,1,0,0,0,.82-.37,1.54,1.54,0,0,0,.19-.93,1.24,1.24,0,0,0-.6-1.16,2.08,2.08,0,0,0-1-.12l.11,2.1A.54.54,0,0,0,71.83,14.69Zm2.71.09A1.39,1.39,0,0,0,75,14.7a.51.51,0,0,0,.25-.5V10.13a.52.52,0,0,0-.24-.5,1.53,1.53,0,0,0-.52-.09V9.32h2.94v.21a1.38,1.38,0,0,0-.54.09.52.52,0,0,0-.25.51V14.2a.51.51,0,0,0,.2.47,1.27,1.27,0,0,0,.59.12V15H74.53ZM78,13h.24a2.57,2.57,0,0,0,.62,1.39,1.5,1.5,0,0,0,1,.47A.93.93,0,0,0,80.94,14a.82.82,0,0,0-.24-.63A3.42,3.42,0,0,0,80,13l-.53-.29a3.39,3.39,0,0,1-1.12-.83,1.49,1.49,0,0,1-.3-1,1.78,1.78,0,0,1,.48-1.12,1.68,1.68,0,0,1,1.37-.49,2.84,2.84,0,0,1,.89.17,3.63,3.63,0,0,0,.49.16.23.23,0,0,0,.2-.07.85.85,0,0,0,.1-.21h.25l-.07,1.83h-.23A2.49,2.49,0,0,0,81,10a1.36,1.36,0,0,0-1-.5,1,1,0,0,0-.68.21.81.81,0,0,0-.05,1.15,5.46,5.46,0,0,0,1,.63l.62.33a2.61,2.61,0,0,1,.65.49A1.58,1.58,0,0,1,82,13.5a1.78,1.78,0,0,1-.55,1.18,2.08,2.08,0,0,1-1.63.51,2.6,2.6,0,0,1-.51-.07,2.53,2.53,0,0,1-.51-.16l-.16-.07-.11,0h-.08a.21.21,0,0,0-.19.07.7.7,0,0,0-.09.21h-.24Zm8.87-3a3.36,3.36,0,0,0,.57.26.3.3,0,0,0,.27-.08.63.63,0,0,0,.15-.24L88,10l-.24,2-.21,0a4.66,4.66,0,0,0-.49-1.08A1.78,1.78,0,0,0,85.85,10a1.24,1.24,0,0,0-1.29.58A4.56,4.56,0,0,0,84,12.5,4.51,4.51,0,0,0,84,14a1.46,1.46,0,0,0,1.3,1.27,2.21,2.21,0,0,0,1.24-.22,4.28,4.28,0,0,0,.83-.57l.22.24a5.12,5.12,0,0,1-1,.69,2.66,2.66,0,0,1-1.53.25,3,3,0,0,1-2-1,2.75,2.75,0,0,1-.65-2.3,2.92,2.92,0,0,1,1.15-2.09,2.89,2.89,0,0,1,2.13-.54A3.2,3.2,0,0,1,86.82,10.06Zm5.37,5.46A5.43,5.43,0,0,0,92.73,14,4,4,0,0,0,92.79,12a1.22,1.22,0,0,0-.9-.91,1.37,1.37,0,0,0-1.53.82,5.62,5.62,0,0,0-.54,1.48,5.68,5.68,0,0,0-.16,1.59,1.33,1.33,0,0,0,1,1.39A1.35,1.35,0,0,0,92.19,15.52ZM93.83,12a2.94,2.94,0,0,1,.36,2.31,3,3,0,1,1-5.83-1.3,3,3,0,0,1,1.3-1.93A2.87,2.87,0,0,1,92,10.77,2.91,2.91,0,0,1,93.83,12Z"/></g></g></g></g></svg>